<?xml version="1.0" encoding="UTF-8"?>
<svg id="Camada_2" data-name="Camada 2" xmlns="http://www.w3.org/2000/svg" viewBox="0 0 211.53 151.51">
  <g id="Camada_1-2" data-name="Camada 1">
    <path d="M159.24,37.96c22.89,3.97,40.59,22.51,43.37,45.59,1.7,14.19-2.82,26.41-12.16,37.01-1.19,1.35-2.43,2.64-4.29,4.66,8.49,5.17,16.45,10.02,25.38,15.46-9.33,3.92-17.55,7.42-25.85,10.75-.77,.31-2.12-.33-3.01-.86-14.21-8.34-28.4-16.73-42.58-25.15-.56-.33-.93-1.01-1.87-2.08,2.36-1.2,4.34-2.29,6.39-3.24,7.55-3.5,15.73-6.03,22.55-10.59,17.83-11.93,13.63-36.81-5.46-46.85l-.6-.09c-17.75-7.26-36.15,2.73-47.45,18.13,0,0-5.65,7.7-15.2,18.81-.44,.51-8.97,7.69-9.13,7.03-15.36,9.91-35.12,12.41-53.32,4.97C6.4,99.4-7.78,65.6,4.32,36S50.23-7.78,79.83,4.32c7.82,3.2,18.5,9.04,23.97,14.81l-20.75,14.03c-3.31-3.48-7.27-5.47-11.99-7.4-17.75-7.26-38.04,1.26-45.3,19.01-7.26,17.75,1.26,38.04,19.01,45.3,15.99,6.54,34.04,.28,42.78-14.01l1.64-2.86c10.91-20.56,25.2-27.98,25.2-27.98,1.26-.81,2.55-1.58,3.87-2.3,14.71-7.95,38.15-7.73,49.46-2.67"/>
  </g>
</svg>